<?xml version="1.0" standalone="no"?>
<!DOCTYPE svg PUBLIC "-//W3C//DTD SVG 20010904//EN"
 "http://www.w3.org/TR/2001/REC-SVG-20010904/DTD/svg10.dtd">
<svg version="1.0" xmlns="http://www.w3.org/2000/svg"
 width="500.000000pt" height="500.000000pt" viewBox="0 0 500.000000 500.000000"
 preserveAspectRatio="xMidYMid meet">
<metadata>
Created by potrace 1.14, written by Peter Selinger 2001-2017
</metadata>
<g transform="translate(0.000000,500.000000) scale(0.100000,-0.100000)"
fill="#000000" stroke="none">
<path d="M2121 4774 c-110 -29 -218 -109 -258 -189 -11 -22 -26 -63 -33 -92
-8 -29 -20 -55 -27 -57 -8 -3 -30 1 -51 9 -115 44 -263 58 -368 35 -96 -22
-226 -91 -296 -159 -47 -46 -96 -140 -114 -219 -16 -73 -16 -211 1 -254 7 -19
-7 -35 -110 -128 -28 -25 -65 -64 -83 -87 -44 -56 -98 -176 -117 -258 -17 -74
-22 -215 -11 -285 7 -41 48 -137 64 -150 4 -3 29 -28 55 -56 l49 -51 -27 -84
c-70 -223 8 -420 212 -535 105 -58 271 -81 365 -48 60 21 125 28 133 14 4 -7
9 -43 11 -80 4 -91 37 -173 92 -232 46 -49 63 -61 140 -97 54 -26 108 -37 220
-45 30 -2 58 -8 64 -14 8 -8 3 -36 -15 -94 -35 -113 -45 -154 -53 -213 -7 -60
-29 -106 -47 -100 -6 3 -28 24 -47 48 -139 169 -315 299 -485 355 -145 49
-285 67 -512 67 -149 0 -164 -2 -190 -21 -26 -20 -28 -26 -27 -85 2 -86 31
-174 112 -339 96 -193 262 -390 436 -514 59 -42 217 -132 241 -136 6 -1 21 -7
35 -12 24 -10 103 -34 144 -45 12 -3 91 -7 176 -9 85 -2 160 -3 167 -3 6 -1
15 -11 19 -23 30 -96 110 -217 189 -283 74 -62 98 -75 165 -87 120 -21 251 40
278 130 18 61 15 71 -36 121 -59 56 -132 148 -132 166 0 24 26 34 109 40 142
11 261 71 380 194 128 132 190 258 194 396 2 74 -16 107 -78 139 -47 24 -232
35 -312 18 -128 -28 -268 -106 -370 -208 -32 -31 -62 -53 -69 -50 -29 11 -9
182 38 321 23 69 98 228 110 233 4 2 8 9 8 16 0 17 65 86 80 86 6 0 46 -33 88
-73 93 -88 132 -113 214 -136 74 -21 209 -27 270 -11 178 46 272 132 344 316
l36 93 68 0 c147 -1 332 72 426 167 61 62 124 183 143 274 23 111 14 240 -24
353 -27 80 -25 90 32 133 165 127 225 248 216 441 -7 159 -57 266 -183 393
-92 92 -183 151 -270 176 -89 26 -85 19 -86 135 -2 179 -69 315 -206 412 -94
67 -170 90 -298 90 -171 0 -303 -52 -429 -169 -38 -35 -73 -64 -78 -64 -12 0
-33 45 -33 70 0 18 -6 36 -36 106 -37 85 -190 206 -306 242 -79 25 -226 28
-307 6z m277 -79 c58 -20 125 -55 119 -61 -3 -3 -36 9 -73 27 -38 17 -74 32
-81 33 -15 2 -30 16 -17 16 5 0 29 -7 52 -15z m-478 -175 c-8 -5 -11 -10 -6
-10 5 0 2 -7 -5 -17 -8 -9 -12 -18 -11 -20 2 -3 1 -7 -1 -10 -5 -4 -1 29 3 35
2 1 4 7 5 12 1 6 3 12 4 15 0 3 7 5 14 5 8 0 7 -4 -3 -10z m2339 -1067 c12
-72 6 -216 -11 -253 l-16 -35 6 45 c3 25 6 100 6 167 1 67 3 120 5 118 1 -2 6
-21 10 -42z m-2044 -2213 c3 -5 1 -10 -4 -10 -6 0 -11 5 -11 10 0 6 2 10 4 10
3 0 8 -4 11 -10z m-8 -42 c-3 -8 -6 -5 -6 6 -1 11 2 17 5 13 3 -3 4 -12 1 -19z
m5 -74 c0 -26 4 -62 9 -78 6 -21 5 -26 -2 -19 -15 15 -24 76 -20 137 2 38 12
8 13 -40z"/>
</g>
</svg>
